<svg width="2560" height="1440" viewBox="0 0 2560 1440" fill="none" xmlns="http://www.w3.org/2000/svg">
<g clip-path="url(#clip0_511_10)">
<path d="M2560 0H0V1440H2560V0Z" fill="#004F2F"/>
<path opacity="0.04" d="M1018.75 0C937.24 55.306 857.953 114.238 780.455 174.998C714.881 226.409 647.818 276.17 585.997 332.155C532.463 380.635 460.52 444.315 433.464 513.193C422.685 540.633 422.867 574.331 441.561 597.128C463.874 624.339 503.845 627.88 538.974 625.805C597.243 622.364 658.739 609.126 716.327 624.751C795.668 646.278 810.832 718.389 776.758 787.563C707.506 928.152 536.15 1042.21 534.166 1210.99C532.636 1341.12 639.481 1411.75 756.609 1435.73C764.393 1437.32 772.216 1438.73 780.059 1440H0V0H1018.75Z" fill="white"/>
<path opacity="0.04" d="M2560 -0.790039V1439.21H1425.53C1421.77 1433.07 1419.58 1429.48 1419.55 1429.43C1388.25 1378.13 1377.35 1293.64 1391.74 1236.63C1422.74 1113.86 1545.99 1088.26 1659.55 1098.37C1745.61 1106.03 1829.52 1131.66 1915.79 1136.46C1969.53 1139.44 2027.07 1132.95 2069.34 1099.63C2139.3 1044.46 2123.87 958.46 2102.53 883.72C2074.3 784.85 2029.07 690.86 1975.65 603.25C1907.86 492.06 1798.73 402.35 1762.08 273.95C1721.86 132.99 1812.45 48.24 1924.55 -0.790039H2560Z" fill="white"/>
<path d="M2003.03 650.024C2003.03 648.748 2002 647.714 2000.72 647.714C1999.45 647.714 1998.41 648.748 1998.41 650.024C1998.41 651.3 1999.45 652.334 2000.72 652.334C2002 652.334 2003.03 651.3 2003.03 650.024Z" fill="white"/>
<path d="M2003.03 623.151C2003.03 621.875 2002 620.841 2000.72 620.841C1999.45 620.841 1998.41 621.875 1998.41 623.151C1998.41 624.427 1999.45 625.461 2000.72 625.461C2002 625.461 2003.03 624.427 2003.03 623.151Z" fill="white"/>
<path d="M2003.03 596.279C2003.03 595.003 2002 593.969 2000.72 593.969C1999.45 593.969 1998.41 595.003 1998.41 596.279C1998.41 597.555 1999.45 598.589 2000.72 598.589C2002 598.588 2003.03 597.554 2003.03 596.279Z" fill="white"/>
<path d="M2003.03 569.406C2003.03 568.13 2002 567.096 2000.72 567.096C1999.45 567.096 1998.41 568.13 1998.41 569.406C1998.41 570.681 1999.45 571.716 2000.72 571.716C2002 571.716 2003.03 570.681 2003.03 569.406Z" fill="white"/>
<path d="M2003.03 542.533C2003.03 541.257 2002 540.223 2000.72 540.223C1999.45 540.223 1998.41 541.257 1998.41 542.533C1998.41 543.809 1999.45 544.843 2000.72 544.843C2002 544.843 2003.03 543.809 2003.03 542.533Z" fill="white"/>
<path d="M2029.91 650.024C2029.91 648.748 2028.87 647.714 2027.6 647.714C2026.32 647.714 2025.29 648.748 2025.29 650.024C2025.29 651.3 2026.32 652.334 2027.6 652.334C2028.87 652.334 2029.91 651.3 2029.91 650.024Z" fill="white"/>
<path d="M2029.91 623.151C2029.91 621.875 2028.87 620.841 2027.6 620.841C2026.32 620.841 2025.29 621.875 2025.29 623.151C2025.29 624.427 2026.32 625.461 2027.6 625.461C2028.87 625.461 2029.91 624.427 2029.91 623.151Z" fill="white"/>
<path d="M2029.91 596.279C2029.91 595.003 2028.87 593.969 2027.6 593.969C2026.32 593.969 2025.29 595.003 2025.29 596.279C2025.29 597.555 2026.32 598.589 2027.6 598.589C2028.87 598.588 2029.91 597.554 2029.91 596.279Z" fill="white"/>
<path d="M2029.91 569.406C2029.91 568.13 2028.87 567.096 2027.6 567.096C2026.32 567.096 2025.29 568.13 2025.29 569.406C2025.29 570.681 2026.32 571.716 2027.6 571.716C2028.87 571.716 2029.91 570.681 2029.91 569.406Z" fill="white"/>
<path d="M2029.91 542.533C2029.91 541.257 2028.87 540.223 2027.6 540.223C2026.32 540.223 2025.29 541.257 2025.29 542.533C2025.29 543.809 2026.32 544.843 2027.6 544.843C2028.87 544.843 2029.91 543.809 2029.91 542.533Z" fill="white"/>
<path d="M2056.78 650.024C2056.78 648.748 2055.74 647.714 2054.47 647.714C2053.19 647.714 2052.16 648.748 2052.16 650.024C2052.16 651.3 2053.19 652.334 2054.47 652.334C2055.74 652.334 2056.78 651.3 2056.78 650.024Z" fill="white"/>
<path d="M2056.78 623.151C2056.78 621.875 2055.74 620.841 2054.47 620.841C2053.19 620.841 2052.16 621.875 2052.16 623.151C2052.16 624.427 2053.19 625.461 2054.47 625.461C2055.74 625.461 2056.78 624.427 2056.78 623.151Z" fill="white"/>
<path d="M2056.78 596.279C2056.78 595.003 2055.74 593.969 2054.47 593.969C2053.19 593.969 2052.16 595.003 2052.16 596.279C2052.16 597.555 2053.19 598.589 2054.47 598.589C2055.74 598.588 2056.78 597.554 2056.78 596.279Z" fill="white"/>
<path d="M2056.78 569.406C2056.78 568.13 2055.74 567.096 2054.47 567.096C2053.19 567.096 2052.16 568.13 2052.16 569.406C2052.16 570.681 2053.19 571.716 2054.47 571.716C2055.74 571.716 2056.78 570.681 2056.78 569.406Z" fill="white"/>
<path d="M2056.78 542.533C2056.78 541.257 2055.74 540.223 2054.47 540.223C2053.19 540.223 2052.16 541.257 2052.16 542.533C2052.16 543.809 2053.19 544.843 2054.47 544.843C2055.74 544.843 2056.78 543.809 2056.78 542.533Z" fill="white"/>
<path d="M2083.65 650.024C2083.65 648.748 2082.62 647.714 2081.34 647.714C2080.07 647.714 2079.03 648.748 2079.03 650.024C2079.03 651.3 2080.07 652.334 2081.34 652.334C2082.62 652.334 2083.65 651.3 2083.65 650.024Z" fill="white"/>
<path d="M2083.65 623.151C2083.65 621.875 2082.62 620.841 2081.34 620.841C2080.07 620.841 2079.03 621.875 2079.03 623.151C2079.03 624.427 2080.07 625.461 2081.34 625.461C2082.62 625.461 2083.65 624.427 2083.65 623.151Z" fill="white"/>
<path d="M2083.65 596.279C2083.65 595.003 2082.62 593.969 2081.34 593.969C2080.07 593.969 2079.03 595.003 2079.03 596.279C2079.03 597.555 2080.07 598.589 2081.34 598.589C2082.62 598.588 2083.65 597.554 2083.65 596.279Z" fill="white"/>
<path d="M2083.65 569.406C2083.65 568.13 2082.62 567.096 2081.34 567.096C2080.07 567.096 2079.03 568.13 2079.03 569.406C2079.03 570.681 2080.07 571.716 2081.34 571.716C2082.62 571.716 2083.65 570.681 2083.65 569.406Z" fill="white"/>
<path d="M2083.65 542.533C2083.65 541.257 2082.62 540.223 2081.34 540.223C2080.07 540.223 2079.03 541.257 2079.03 542.533C2079.03 543.809 2080.07 544.843 2081.34 544.843C2082.62 544.843 2083.65 543.809 2083.65 542.533Z" fill="white"/>
<path d="M2110.52 650.024C2110.52 648.748 2109.49 647.714 2108.21 647.714C2106.94 647.714 2105.9 648.748 2105.9 650.024C2105.9 651.3 2106.94 652.334 2108.21 652.334C2109.49 652.334 2110.52 651.3 2110.52 650.024Z" fill="white"/>
<path d="M2110.52 623.151C2110.52 621.875 2109.49 620.841 2108.21 620.841C2106.94 620.841 2105.9 621.875 2105.9 623.151C2105.9 624.427 2106.94 625.461 2108.21 625.461C2109.49 625.461 2110.52 624.427 2110.52 623.151Z" fill="white"/>
<path d="M2110.52 596.279C2110.52 595.003 2109.49 593.969 2108.21 593.969C2106.94 593.969 2105.9 595.003 2105.9 596.279C2105.9 597.555 2106.94 598.589 2108.21 598.589C2109.49 598.588 2110.52 597.554 2110.52 596.279Z" fill="white"/>
<path d="M2110.52 569.406C2110.52 568.13 2109.49 567.096 2108.21 567.096C2106.94 567.096 2105.9 568.13 2105.9 569.406C2105.9 570.681 2106.94 571.716 2108.21 571.716C2109.49 571.716 2110.52 570.681 2110.52 569.406Z" fill="white"/>
<path d="M2110.52 542.533C2110.52 541.257 2109.49 540.223 2108.21 540.223C2106.94 540.223 2105.9 541.257 2105.9 542.533C2105.9 543.809 2106.94 544.843 2108.21 544.843C2109.49 544.843 2110.52 543.809 2110.52 542.533Z" fill="white"/>
<path d="M2137.4 650.024C2137.4 648.748 2136.36 647.714 2135.09 647.714C2133.81 647.714 2132.78 648.748 2132.78 650.024C2132.78 651.3 2133.81 652.334 2135.09 652.334C2136.36 652.334 2137.4 651.3 2137.4 650.024Z" fill="white"/>
<path d="M2137.4 623.151C2137.4 621.875 2136.36 620.841 2135.09 620.841C2133.81 620.841 2132.78 621.875 2132.78 623.151C2132.78 624.427 2133.81 625.461 2135.09 625.461C2136.36 625.461 2137.4 624.427 2137.4 623.151Z" fill="white"/>
<path d="M2137.4 596.279C2137.4 595.003 2136.36 593.969 2135.09 593.969C2133.81 593.969 2132.78 595.003 2132.78 596.279C2132.78 597.555 2133.81 598.589 2135.09 598.589C2136.36 598.588 2137.4 597.554 2137.4 596.279Z" fill="white"/>
<path d="M2137.4 569.406C2137.4 568.13 2136.36 567.096 2135.09 567.096C2133.81 567.096 2132.78 568.13 2132.78 569.406C2132.78 570.681 2133.81 571.716 2135.09 571.716C2136.36 571.716 2137.4 570.681 2137.4 569.406Z" fill="white"/>
<path d="M2137.4 542.533C2137.4 541.257 2136.36 540.223 2135.09 540.223C2133.81 540.223 2132.78 541.257 2132.78 542.533C2132.78 543.809 2133.81 544.843 2135.09 544.843C2136.36 544.843 2137.4 543.809 2137.4 542.533Z" fill="white"/>
<path d="M2164.27 650.024C2164.27 648.748 2163.24 647.714 2161.96 647.714C2160.68 647.714 2159.65 648.748 2159.65 650.024C2159.65 651.3 2160.68 652.334 2161.96 652.334C2163.24 652.334 2164.27 651.3 2164.27 650.024Z" fill="white"/>
<path d="M2164.27 623.151C2164.27 621.875 2163.24 620.841 2161.96 620.841C2160.68 620.841 2159.65 621.875 2159.65 623.151C2159.65 624.427 2160.68 625.461 2161.96 625.461C2163.24 625.461 2164.27 624.427 2164.27 623.151Z" fill="white"/>
<path d="M2164.27 596.279C2164.27 595.003 2163.24 593.969 2161.96 593.969C2160.68 593.969 2159.65 595.003 2159.65 596.279C2159.65 597.555 2160.68 598.589 2161.96 598.589C2163.24 598.588 2164.27 597.554 2164.27 596.279Z" fill="white"/>
<path d="M2164.27 569.406C2164.27 568.13 2163.24 567.096 2161.96 567.096C2160.68 567.096 2159.65 568.13 2159.65 569.406C2159.65 570.681 2160.68 571.716 2161.96 571.716C2163.24 571.716 2164.27 570.681 2164.27 569.406Z" fill="white"/>
<path d="M2164.27 542.533C2164.27 541.257 2163.24 540.223 2161.96 540.223C2160.68 540.223 2159.65 541.257 2159.65 542.533C2159.65 543.809 2160.68 544.843 2161.96 544.843C2163.24 544.843 2164.27 543.809 2164.27 542.533Z" fill="white"/>
<path d="M2191.14 650.024C2191.14 648.748 2190.11 647.714 2188.83 647.714C2187.56 647.714 2186.52 648.748 2186.52 650.024C2186.52 651.3 2187.56 652.334 2188.83 652.334C2190.11 652.334 2191.14 651.3 2191.14 650.024Z" fill="white"/>
<path d="M2191.14 623.151C2191.14 621.875 2190.11 620.841 2188.83 620.841C2187.56 620.841 2186.52 621.875 2186.52 623.151C2186.52 624.427 2187.56 625.461 2188.83 625.461C2190.11 625.461 2191.14 624.427 2191.14 623.151Z" fill="white"/>
<path d="M2191.14 596.279C2191.14 595.003 2190.11 593.969 2188.83 593.969C2187.56 593.969 2186.52 595.003 2186.52 596.279C2186.52 597.555 2187.56 598.589 2188.83 598.589C2190.11 598.588 2191.14 597.554 2191.14 596.279Z" fill="white"/>
<path d="M2191.14 569.406C2191.14 568.13 2190.11 567.096 2188.83 567.096C2187.56 567.096 2186.52 568.13 2186.52 569.406C2186.52 570.681 2187.56 571.716 2188.83 571.716C2190.11 571.716 2191.14 570.681 2191.14 569.406Z" fill="white"/>
<path d="M2191.14 542.533C2191.14 541.257 2190.11 540.223 2188.83 540.223C2187.56 540.223 2186.52 541.257 2186.52 542.533C2186.52 543.809 2187.56 544.843 2188.83 544.843C2190.11 544.843 2191.14 543.809 2191.14 542.533Z" fill="white"/>
<path d="M2218.02 650.024C2218.02 648.748 2216.98 647.714 2215.71 647.714C2214.43 647.714 2213.4 648.748 2213.4 650.024C2213.4 651.3 2214.43 652.334 2215.71 652.334C2216.98 652.334 2218.02 651.3 2218.02 650.024Z" fill="white"/>
<path d="M2218.02 623.151C2218.02 621.875 2216.98 620.841 2215.71 620.841C2214.43 620.841 2213.4 621.875 2213.4 623.151C2213.4 624.427 2214.43 625.461 2215.71 625.461C2216.98 625.461 2218.02 624.427 2218.02 623.151Z" fill="white"/>
<path d="M2218.02 596.279C2218.02 595.003 2216.98 593.969 2215.71 593.969C2214.43 593.969 2213.4 595.003 2213.4 596.279C2213.4 597.555 2214.43 598.589 2215.71 598.589C2216.98 598.588 2218.02 597.554 2218.02 596.279Z" fill="white"/>
<path d="M2218.02 569.406C2218.02 568.13 2216.98 567.096 2215.71 567.096C2214.43 567.096 2213.4 568.13 2213.4 569.406C2213.4 570.681 2214.43 571.716 2215.71 571.716C2216.98 571.716 2218.02 570.681 2218.02 569.406Z" fill="white"/>
<path d="M2218.02 542.533C2218.02 541.257 2216.98 540.223 2215.71 540.223C2214.43 540.223 2213.4 541.257 2213.4 542.533C2213.4 543.809 2214.43 544.843 2215.71 544.843C2216.98 544.843 2218.02 543.809 2218.02 542.533Z" fill="white"/>
<path d="M2244.89 650.024C2244.89 648.748 2243.85 647.714 2242.58 647.714C2241.3 647.714 2240.27 648.748 2240.27 650.024C2240.27 651.3 2241.3 652.334 2242.58 652.334C2243.85 652.334 2244.89 651.3 2244.89 650.024Z" fill="white"/>
<path d="M2244.89 623.151C2244.89 621.875 2243.85 620.841 2242.58 620.841C2241.3 620.841 2240.27 621.875 2240.27 623.151C2240.27 624.427 2241.3 625.461 2242.58 625.461C2243.85 625.461 2244.89 624.427 2244.89 623.151Z" fill="white"/>
<path d="M2244.89 596.279C2244.89 595.003 2243.85 593.969 2242.58 593.969C2241.3 593.969 2240.27 595.003 2240.27 596.279C2240.27 597.555 2241.3 598.589 2242.58 598.589C2243.85 598.588 2244.89 597.554 2244.89 596.279Z" fill="white"/>
<path d="M2244.89 569.406C2244.89 568.13 2243.85 567.096 2242.58 567.096C2241.3 567.096 2240.27 568.13 2240.27 569.406C2240.27 570.681 2241.3 571.716 2242.58 571.716C2243.85 571.716 2244.89 570.681 2244.89 569.406Z" fill="white"/>
<path d="M2244.89 542.533C2244.89 541.257 2243.85 540.223 2242.58 540.223C2241.3 540.223 2240.27 541.257 2240.27 542.533C2240.27 543.809 2241.3 544.843 2242.58 544.843C2243.85 544.843 2244.89 543.809 2244.89 542.533Z" fill="white"/>
<path d="M319.733 897.467C319.733 896.191 318.699 895.157 317.423 895.157C316.148 895.157 315.113 896.191 315.113 897.467C315.113 898.743 316.148 899.777 317.423 899.777C318.699 899.777 319.733 898.743 319.733 897.467Z" fill="white"/>
<path d="M319.733 870.595C319.733 869.319 318.699 868.285 317.423 868.285C316.148 868.285 315.113 869.319 315.113 870.595C315.113 871.871 316.148 872.905 317.423 872.905C318.699 872.904 319.733 871.87 319.733 870.595Z" fill="white"/>
<path d="M319.733 843.722C319.733 842.446 318.699 841.412 317.423 841.412C316.148 841.412 315.113 842.446 315.113 843.722C315.113 844.998 316.148 846.032 317.423 846.032C318.699 846.032 319.733 844.997 319.733 843.722Z" fill="white"/>
<path d="M319.733 816.849C319.733 815.573 318.699 814.539 317.423 814.539C316.148 814.539 315.113 815.573 315.113 816.849C315.113 818.124 316.148 819.159 317.423 819.159C318.699 819.159 319.733 818.125 319.733 816.849Z" fill="white"/>
<path d="M319.733 789.976C319.733 788.7 318.699 787.666 317.423 787.666C316.148 787.666 315.113 788.7 315.113 789.976C315.113 791.252 316.148 792.286 317.423 792.286C318.699 792.286 319.733 791.252 319.733 789.976Z" fill="white"/>
<path d="M346.606 897.467C346.606 896.191 345.572 895.157 344.296 895.157C343.02 895.157 341.986 896.191 341.986 897.467C341.986 898.743 343.021 899.777 344.296 899.777C345.571 899.777 346.606 898.743 346.606 897.467Z" fill="white"/>
<path d="M346.606 870.595C346.606 869.319 345.572 868.285 344.296 868.285C343.02 868.285 341.986 869.319 341.986 870.595C341.986 871.871 343.021 872.905 344.296 872.905C345.571 872.904 346.606 871.87 346.606 870.595Z" fill="white"/>
<path d="M346.606 843.722C346.606 842.446 345.572 841.412 344.296 841.412C343.02 841.412 341.986 842.446 341.986 843.722C341.986 844.998 343.021 846.032 344.296 846.032C345.571 846.032 346.606 844.997 346.606 843.722Z" fill="white"/>
<path d="M346.606 816.849C346.606 815.573 345.572 814.539 344.296 814.539C343.02 814.539 341.986 815.573 341.986 816.849C341.986 818.124 343.021 819.159 344.296 819.159C345.571 819.159 346.606 818.125 346.606 816.849Z" fill="white"/>
<path d="M346.606 789.976C346.606 788.7 345.572 787.666 344.296 787.666C343.02 787.666 341.986 788.7 341.986 789.976C341.986 791.252 343.021 792.286 344.296 792.286C345.571 792.286 346.606 791.252 346.606 789.976Z" fill="white"/>
<path d="M373.477 897.467C373.477 896.191 372.443 895.157 371.167 895.157C369.891 895.157 368.857 896.191 368.857 897.467C368.857 898.743 369.892 899.777 371.167 899.777C372.443 899.777 373.477 898.743 373.477 897.467Z" fill="white"/>
<path d="M373.477 870.595C373.477 869.319 372.443 868.285 371.167 868.285C369.891 868.285 368.857 869.319 368.857 870.595C368.857 871.871 369.892 872.905 371.167 872.905C372.443 872.904 373.477 871.87 373.477 870.595Z" fill="white"/>
<path d="M373.477 843.722C373.477 842.446 372.443 841.412 371.167 841.412C369.891 841.412 368.857 842.446 368.857 843.722C368.857 844.998 369.892 846.032 371.167 846.032C372.443 846.032 373.477 844.997 373.477 843.722Z" fill="white"/>
<path d="M373.477 816.849C373.477 815.573 372.443 814.539 371.167 814.539C369.891 814.539 368.857 815.573 368.857 816.849C368.857 818.124 369.892 819.159 371.167 819.159C372.443 819.159 373.477 818.125 373.477 816.849Z" fill="white"/>
<path d="M373.477 789.976C373.477 788.7 372.443 787.666 371.167 787.666C369.891 787.666 368.857 788.7 368.857 789.976C368.857 791.252 369.892 792.286 371.167 792.286C372.443 792.286 373.477 791.252 373.477 789.976Z" fill="white"/>
<path d="M400.35 897.467C400.35 896.191 399.316 895.157 398.04 895.157C396.765 895.157 395.73 896.191 395.73 897.467C395.73 898.743 396.765 899.777 398.04 899.777C399.316 899.777 400.35 898.743 400.35 897.467Z" fill="white"/>
<path d="M400.35 870.595C400.35 869.319 399.316 868.285 398.04 868.285C396.765 868.285 395.73 869.319 395.73 870.595C395.73 871.871 396.765 872.905 398.04 872.905C399.316 872.904 400.35 871.87 400.35 870.595Z" fill="white"/>
<path d="M400.35 843.722C400.35 842.446 399.316 841.412 398.04 841.412C396.765 841.412 395.73 842.446 395.73 843.722C395.73 844.998 396.765 846.032 398.04 846.032C399.316 846.032 400.35 844.997 400.35 843.722Z" fill="white"/>
<path d="M400.35 816.849C400.35 815.573 399.316 814.539 398.04 814.539C396.765 814.539 395.73 815.573 395.73 816.849C395.73 818.124 396.765 819.159 398.04 819.159C399.316 819.159 400.35 818.125 400.35 816.849Z" fill="white"/>
<path d="M400.35 789.976C400.35 788.7 399.316 787.666 398.04 787.666C396.765 787.666 395.73 788.7 395.73 789.976C395.73 791.252 396.765 792.286 398.04 792.286C399.316 792.286 400.35 791.252 400.35 789.976Z" fill="white"/>
<path d="M427.224 897.467C427.224 896.191 426.19 895.157 424.914 895.157C423.639 895.157 422.604 896.191 422.604 897.467C422.604 898.743 423.639 899.777 424.914 899.777C426.19 899.777 427.224 898.743 427.224 897.467Z" fill="white"/>
<path d="M427.224 870.595C427.224 869.319 426.19 868.285 424.914 868.285C423.639 868.285 422.604 869.319 422.604 870.595C422.604 871.871 423.639 872.905 424.914 872.905C426.19 872.904 427.224 871.87 427.224 870.595Z" fill="white"/>
<path d="M427.224 843.722C427.224 842.446 426.19 841.412 424.914 841.412C423.639 841.412 422.604 842.446 422.604 843.722C422.604 844.998 423.639 846.032 424.914 846.032C426.19 846.032 427.224 844.997 427.224 843.722Z" fill="white"/>
<path d="M427.224 816.849C427.224 815.573 426.19 814.539 424.914 814.539C423.639 814.539 422.604 815.573 422.604 816.849C422.604 818.124 423.639 819.159 424.914 819.159C426.19 819.159 427.224 818.125 427.224 816.849Z" fill="white"/>
<path d="M427.224 789.976C427.224 788.7 426.19 787.666 424.914 787.666C423.639 787.666 422.604 788.7 422.604 789.976C422.604 791.252 423.639 792.286 424.914 792.286C426.19 792.286 427.224 791.252 427.224 789.976Z" fill="white"/>
<path d="M454.097 897.467C454.097 896.191 453.063 895.157 451.787 895.157C450.512 895.157 449.477 896.191 449.477 897.467C449.477 898.743 450.512 899.777 451.787 899.777C453.063 899.777 454.097 898.743 454.097 897.467Z" fill="white"/>
<path d="M454.097 870.595C454.097 869.319 453.063 868.285 451.787 868.285C450.512 868.285 449.477 869.319 449.477 870.595C449.477 871.871 450.512 872.905 451.787 872.905C453.063 872.904 454.097 871.87 454.097 870.595Z" fill="white"/>
<path d="M454.097 843.722C454.097 842.446 453.063 841.412 451.787 841.412C450.512 841.412 449.477 842.446 449.477 843.722C449.477 844.998 450.512 846.032 451.787 846.032C453.063 846.032 454.097 844.997 454.097 843.722Z" fill="white"/>
<path d="M454.097 816.849C454.097 815.573 453.063 814.539 451.787 814.539C450.512 814.539 449.477 815.573 449.477 816.849C449.477 818.124 450.512 819.159 451.787 819.159C453.063 819.159 454.097 818.125 454.097 816.849Z" fill="white"/>
<path d="M454.097 789.976C454.097 788.7 453.063 787.666 451.787 787.666C450.512 787.666 449.477 788.7 449.477 789.976C449.477 791.252 450.512 792.286 451.787 792.286C453.063 792.286 454.097 791.252 454.097 789.976Z" fill="white"/>
<path d="M480.97 897.467C480.97 896.191 479.936 895.157 478.66 895.157C477.384 895.157 476.35 896.191 476.35 897.467C476.35 898.743 477.385 899.777 478.66 899.777C479.936 899.777 480.97 898.743 480.97 897.467Z" fill="white"/>
<path d="M480.97 870.595C480.97 869.319 479.936 868.285 478.66 868.285C477.384 868.285 476.35 869.319 476.35 870.595C476.35 871.871 477.385 872.905 478.66 872.905C479.936 872.904 480.97 871.87 480.97 870.595Z" fill="white"/>
<path d="M480.97 843.722C480.97 842.446 479.936 841.412 478.66 841.412C477.384 841.412 476.35 842.446 476.35 843.722C476.35 844.998 477.385 846.032 478.66 846.032C479.936 846.032 480.97 844.997 480.97 843.722Z" fill="white"/>
<path d="M480.97 816.849C480.97 815.573 479.936 814.539 478.66 814.539C477.384 814.539 476.35 815.573 476.35 816.849C476.35 818.124 477.385 819.159 478.66 819.159C479.936 819.159 480.97 818.125 480.97 816.849Z" fill="white"/>
<path d="M480.97 789.976C480.97 788.7 479.936 787.666 478.66 787.666C477.384 787.666 476.35 788.7 476.35 789.976C476.35 791.252 477.385 792.286 478.66 792.286C479.936 792.286 480.97 791.252 480.97 789.976Z" fill="white"/>
<path d="M507.843 897.467C507.843 896.191 506.809 895.157 505.533 895.157C504.258 895.157 503.223 896.191 503.223 897.467C503.223 898.743 504.258 899.777 505.533 899.777C506.809 899.777 507.843 898.743 507.843 897.467Z" fill="white"/>
<path d="M507.843 870.595C507.843 869.319 506.809 868.285 505.533 868.285C504.258 868.285 503.223 869.319 503.223 870.595C503.223 871.871 504.258 872.905 505.533 872.905C506.809 872.904 507.843 871.87 507.843 870.595Z" fill="white"/>
<path d="M507.843 843.722C507.843 842.446 506.809 841.412 505.533 841.412C504.258 841.412 503.223 842.446 503.223 843.722C503.223 844.998 504.258 846.032 505.533 846.032C506.809 846.032 507.843 844.997 507.843 843.722Z" fill="white"/>
<path d="M507.843 816.849C507.843 815.573 506.809 814.539 505.533 814.539C504.258 814.539 503.223 815.573 503.223 816.849C503.223 818.124 504.258 819.159 505.533 819.159C506.809 819.159 507.843 818.125 507.843 816.849Z" fill="white"/>
<path d="M507.843 789.976C507.843 788.7 506.809 787.666 505.533 787.666C504.258 787.666 503.223 788.7 503.223 789.976C503.223 791.252 504.258 792.286 505.533 792.286C506.809 792.286 507.843 791.252 507.843 789.976Z" fill="white"/>
<path d="M534.716 897.467C534.716 896.191 533.682 895.157 532.406 895.157C531.13 895.157 530.096 896.191 530.096 897.467C530.096 898.743 531.13 899.777 532.406 899.777C533.682 899.777 534.716 898.743 534.716 897.467Z" fill="white"/>
<path d="M534.716 870.595C534.716 869.319 533.682 868.285 532.406 868.285C531.13 868.285 530.096 869.319 530.096 870.595C530.096 871.871 531.13 872.905 532.406 872.905C533.682 872.904 534.716 871.87 534.716 870.595Z" fill="white"/>
<path d="M534.716 843.722C534.716 842.446 533.682 841.412 532.406 841.412C531.13 841.412 530.096 842.446 530.096 843.722C530.096 844.998 531.13 846.032 532.406 846.032C533.682 846.032 534.716 844.997 534.716 843.722Z" fill="white"/>
<path d="M534.716 816.849C534.716 815.573 533.682 814.539 532.406 814.539C531.13 814.539 530.096 815.573 530.096 816.849C530.096 818.124 531.13 819.159 532.406 819.159C533.682 819.159 534.716 818.125 534.716 816.849Z" fill="white"/>
<path d="M534.716 789.976C534.716 788.7 533.682 787.666 532.406 787.666C531.13 787.666 530.096 788.7 530.096 789.976C530.096 791.252 531.13 792.286 532.406 792.286C533.682 792.286 534.716 791.252 534.716 789.976Z" fill="white"/>
<path d="M561.589 897.467C561.589 896.191 560.555 895.157 559.279 895.157C558.004 895.157 556.969 896.191 556.969 897.467C556.969 898.743 558.004 899.777 559.279 899.777C560.555 899.777 561.589 898.743 561.589 897.467Z" fill="white"/>
<path d="M561.589 870.595C561.589 869.319 560.555 868.285 559.279 868.285C558.004 868.285 556.969 869.319 556.969 870.595C556.969 871.871 558.004 872.905 559.279 872.905C560.555 872.904 561.589 871.87 561.589 870.595Z" fill="white"/>
<path d="M561.589 843.722C561.589 842.446 560.555 841.412 559.279 841.412C558.004 841.412 556.969 842.446 556.969 843.722C556.969 844.998 558.004 846.032 559.279 846.032C560.555 846.032 561.589 844.997 561.589 843.722Z" fill="white"/>
<path d="M561.589 816.849C561.589 815.573 560.555 814.539 559.279 814.539C558.004 814.539 556.969 815.573 556.969 816.849C556.969 818.124 558.004 819.159 559.279 819.159C560.555 819.159 561.589 818.125 561.589 816.849Z" fill="white"/>
<path d="M561.589 789.976C561.589 788.7 560.555 787.666 559.279 787.666C558.004 787.666 556.969 788.7 556.969 789.976C556.969 791.252 558.004 792.286 559.279 792.286C560.555 792.286 561.589 791.252 561.589 789.976Z" fill="white"/>
<mask id="mask0_511_10" style="mask-type:luminance" maskUnits="userSpaceOnUse" x="0" y="-1" width="2560" height="1441">
<path d="M2560 -0.791016H0V1439.21H2560V-0.791016Z" fill="white"/>
</mask>
<g mask="url(#mask0_511_10)">
<path d="M707.29 1587.73C740.942 1613.45 785.746 1627.81 825.098 1635.28C935.653 1656.26 1126.58 1686.11 1195.33 1568.11C1249.81 1474.6 1154.17 1365.69 1068.46 1336.27C958.744 1298.6 810.863 1311.92 714.347 1377.77C665.793 1410.89 643.233 1469.4 661.526 1525.8C669.866 1551.51 686.437 1571.8 707.29 1587.73Z" fill="#307C3A"/>
<path d="M2502.66 2150.82C2361.79 2140.09 2245.35 2073.52 2200.01 1931.17C2154.94 1789.63 2209.85 1644 2169.09 1501.86C2145.65 1420.15 2109 1348.25 2133.73 1261.38C2164.26 1154.17 2265.68 1088.17 2370.37 1066.92C2649.74 1010.21 2833.38 1265.94 2888.61 1508.08C2942.39 1743.84 2878.81 2076.65 2605.7 2143.08C2579.84 2149.37 2553.2 2152.26 2526.59 2151.91C2518.6 2151.8 2510.62 2151.43 2502.66 2150.82Z" fill="#307C3A"/>
<path d="M2324.32 899.392C2448.95 804.094 2649.49 843.431 2742.96 965.48C2758.43 985.688 2819.53 1067.78 2773.84 1084.51C2767.54 1086.82 2760.59 1086.71 2753.97 1085.62C2720.97 1080.22 2696.25 1053.8 2669.56 1035.89C2620.05 1002.69 2562.19 982.219 2502.85 976.668C2468.33 973.439 2432.75 974.469 2399 982.86C2369.13 990.288 2306.41 1017.55 2289.95 973.638C2287.4 966.858 2287.4 959.343 2288.67 952.216C2292.59 930.262 2306.52 912.995 2324.32 899.392Z" fill="#307C3A"/>
<path d="M49.681 1463.66C42.406 1674.26 430.329 1688.99 567.382 1668.31C669.677 1652.88 771.463 1605.06 838.115 1524.2C883.849 1468.71 881.409 1409.39 835.292 1354.11C782.65 1291 706.641 1249.87 626.726 1230.71C520.266 1205.19 409.096 1215.25 304.721 1244.67C207.576 1272.05 53.381 1356.56 49.681 1463.66Z" fill="#CFEEB7"/>
<path d="M-12.3271 266.232C29.8029 261.902 72.2789 241.665 106.057 220.139C200.954 159.666 360.464 50.5799 329.682 -82.4731C305.289 -187.909 161.005 -201.697 78.4209 -164.4C-27.2971 -116.654 -125.883 -5.62707 -151.058 108.469C-163.723 165.867 -140.068 223.935 -88.0971 252.479C-64.4081 265.491 -38.4341 268.915 -12.3271 266.232Z" fill="#307C3A"/>
<path d="M2087.66 -148.032C2124.98 -240.545 2194.67 -304.684 2300.16 -304.771C2405.05 -304.858 2491.33 -236.78 2595.7 -233.843C2655.7 -232.154 2711.92 -241.457 2765.1 -206.246C2830.73 -162.788 2853.47 -80.4269 2845.4 -5.43393C2823.87 194.707 2612.52 263.646 2437.75 249.074C2267.59 234.886 2057.19 120.973 2070.85 -77.0269C2072.14 -95.7789 2075.89 -114.326 2081.81 -132.16C2083.59 -137.511 2085.55 -142.803 2087.66 -148.032Z" fill="#CFEEB7"/>
</g>
<path d="M589.637 -108.512C635.671 41.4763 529.081 215.837 382.153 261.055C357.827 268.541 259.613 297.295 259.811 248.64C259.838 241.931 262.355 235.449 265.674 229.618C282.215 200.556 315.578 186.56 341.642 167.756C389.986 132.878 429.289 85.7413 455.12 32.0303C470.146 0.786274 481.548 -32.9337 485.41 -67.4917C488.828 -98.0807 485.065 -166.371 531.965 -166.544C539.205 -166.571 546.254 -163.966 552.495 -160.295C571.72 -148.991 583.066 -129.923 589.637 -108.512Z" fill="#307C3A"/>
<g opacity="0.04">
<path d="M1345.1 -75.6738C1343.59 -54.0048 1347.48 -31.9758 1357.59 -10.8518C1367.3 9.45119 1381.88 31.5202 1401.47 46.1512C1433.7 70.2242 1492.04 85.6512 1533.43 91.4422C1582.51 98.3072 1643.62 76.1742 1679.17 47.7702C1723.94 12.0072 1747.91 -49.2848 1732.5 -100.201C1721.89 -135.249 1695 -184.391 1659.19 -205.555C1581.13 -251.694 1477.43 -243.47 1408.67 -188.3C1371.19 -158.23 1348.02 -117.626 1345.1 -75.6738Z" fill="white"/>
</g>
<path d="M1652.94 567.994H1513.6V571.899H1652.94V567.994Z" fill="#CEEDB6"/>
<path d="M1046.4 567.994H907.059V571.899H1046.4V567.994Z" fill="#CEEDB6"/>
<g opacity="0.04">
<path d="M1825.16 963.484C1824.34 977.059 1826.41 990.856 1831.8 1004.08C1836.98 1016.79 1844.76 1030.61 1855.22 1039.76C1872.44 1054.83 1903.61 1064.46 1925.73 1068.06C1951.96 1072.33 1984.64 1058.43 2003.66 1040.62C2027.6 1018.2 2040.45 979.788 2032.24 947.902C2026.59 925.954 2012.25 895.186 1993.12 881.949C1951.42 853.091 1895.99 858.301 1859.2 892.898C1839.15 911.756 1826.75 937.204 1825.16 963.484Z" fill="white"/>
</g>
</g>
<defs>
<clipPath id="clip0_511_10">
<rect width="2560" height="1440" fill="white"/>
</clipPath>
</defs>
</svg>
