<svg width="1040" height="500" viewBox="0 0 1040 500" fill="none" xmlns="http://www.w3.org/2000/svg">
<g clip-path="url(#clip0_505_12)">
<path d="M1040 0.0469971H0V499.953H1040V0.0469971Z" fill="white"/>
<path opacity="0.32" d="M1040 0H795.053C770.669 73.866 720.24 136.237 657.41 168.84C633.413 181.292 607.885 189.556 583.955 202.177C559.309 215.176 536.511 232.769 516.729 254.053C482.676 290.693 457.733 337.883 421.217 371.26C371.479 416.723 306.115 431.571 243.306 443.117C196.156 451.784 144.345 462.346 111.307 499.953H1040V0Z" fill="#FFB47E"/>
<path d="M781.542 443.831C778.141 444.294 761.146 451.668 749.928 455.118C746.965 456.029 745.086 451.962 747.713 450.317C753.313 446.811 759.178 443.727 765.242 441.104C755.758 442.378 744.729 446.374 735.134 444.464C730.6 443.562 729.849 437.369 734.067 435.477C739.121 433.209 744.392 431.423 749.784 430.155C741.517 431.293 731.3 434.148 723.294 431.126C719.425 429.665 719.331 424.233 723.112 422.559C727.188 420.754 731.571 419.638 736.016 419.299C728.563 419.377 721.178 417.252 714.444 413.885C711.213 412.269 712.067 407.528 715.655 407.107C717.664 406.872 719.712 406.982 721.678 407.462C687.049 399.262 640.058 324.461 731.052 390.494C727.96 386.553 721.533 376.53 718.861 368.341C717.472 364.086 723.067 361.091 725.83 364.611C731.19 371.441 736.891 382.075 739.529 385.98C739.345 380.46 741.024 372.488 746.584 370.18C753.054 371.278 757.651 393.797 760.436 400.103C760.828 396.325 763.499 379.69 768.779 388.397C775.388 401.131 781.997 413.864 788.607 426.598C793.807 433.317 789.082 441.296 781.542 443.831Z" fill="#CCC200"/>
<path d="M793.016 438.416C787.216 437.92 782.135 434.488 777.408 431.092C752.247 413.015 727.995 392.394 698.615 382.561" stroke="#085F66" stroke-miterlimit="10" stroke-linecap="round" stroke-linejoin="round"/>
<path d="M747.488 409.467C740.544 400.602 736.14 390.054 731.982 379.589" stroke="#085F66" stroke-miterlimit="10" stroke-linecap="round" stroke-linejoin="round"/>
<path d="M761.721 418.979C752.778 415.506 743.092 413.962 733.513 414.48" stroke="#085F66" stroke-miterlimit="10" stroke-linecap="round" stroke-linejoin="round"/>
<path d="M739.207 403.428C734.086 403.42 728.964 404.147 724.047 405.581" stroke="#085F66" stroke-miterlimit="10" stroke-linecap="round" stroke-linejoin="round"/>
<path d="M761.614 419.793C757.733 413.73 754.706 407.122 752.65 400.224" stroke="#085F66" stroke-miterlimit="10" stroke-linecap="round" stroke-linejoin="round"/>
<path d="M777.807 431.444C772.935 424.54 769.627 416.539 768.202 408.21" stroke="#085F66" stroke-miterlimit="10" stroke-linecap="round" stroke-linejoin="round"/>
<path d="M771.661 426.903C762.122 428.515 752.914 432.064 744.761 437.271" stroke="#085F66" stroke-miterlimit="10" stroke-linecap="round" stroke-linejoin="round"/>
<path d="M764.872 422.527C760.403 423.346 755.981 424.419 751.634 425.739" stroke="#085F66" stroke-miterlimit="10" stroke-linecap="round" stroke-linejoin="round"/>
<path d="M835.096 464.308C821.611 471.272 805.372 475.06 790.476 472.918C773.107 468.961 771.721 449.072 779.901 433.24C783.417 426.434 788.785 418.187 795.324 412.721C800.916 408.047 809.064 407.784 814.923 412.118C827.589 421.488 835.768 440.133 839.145 455.502C839.919 459.023 838.298 462.654 835.096 464.308Z" fill="#FF5920"/>
<mask id="mask0_505_12" style="mask-type:luminance" maskUnits="userSpaceOnUse" x="775" y="409" width="65" height="65">
<path d="M835.096 464.308C821.611 471.272 805.372 475.06 790.476 472.918C773.107 468.961 771.721 449.072 779.901 433.24C783.417 426.434 788.785 418.187 795.324 412.721C800.916 408.047 809.064 407.784 814.923 412.118C827.589 421.488 835.768 440.133 839.145 455.502C839.919 459.023 838.298 462.654 835.096 464.308Z" fill="white"/>
</mask>
<g mask="url(#mask0_505_12)">
<path d="M822.106 409.22C813.821 410.273 807.971 417.609 803.169 424.442C799.288 429.965 795.458 435.577 792.695 441.736C787.282 453.803 786.252 467.782 789.84 480.512" stroke="#032021" stroke-miterlimit="10" stroke-linecap="round" stroke-linejoin="round"/>
<path d="M832.71 420.042C822.643 425.973 814.54 435.175 809.929 445.91C805.319 456.646 804.226 468.858 806.857 480.242C806.971 480.733 807.059 481.333 806.682 481.668" stroke="#032021" stroke-miterlimit="10" stroke-linecap="round" stroke-linejoin="round"/>
<path d="M841.751 439.551C833.645 444.947 827.431 453.129 824.41 462.386C822.778 467.388 822.095 472.988 824.17 477.823" stroke="#032021" stroke-miterlimit="10" stroke-linecap="round" stroke-linejoin="round"/>
</g>
<path opacity="0.52" d="M791.14 427.552C791.94 437.949 804.732 424.189 810.095 426.447C816.656 427.902 814.21 416.802 809.513 415.952C801.297 413.949 792.159 418.852 791.14 427.552Z" fill="white"/>
<path opacity="0.57" d="M563.593 226.632C539.123 257.016 600.408 294.882 622.941 251.905C626.766 244.61 623.79 230.871 618.298 226.38C617.476 217.685 618.858 205.471 610.931 199.815C599.326 194.669 572.178 193.417 567.589 206.696C566.591 211.513 565.837 222.027 563.593 226.632Z" fill="white"/>
<path opacity="0.82" d="M622.941 251.905C626.237 245.618 624.476 234.556 620.412 228.741C616.539 228.365 612.531 229.345 609.334 231.572C605.631 234.151 602.788 238.345 598.367 239.252C594.649 240.015 590.905 238.184 587.111 238.051C583.95 237.941 580.714 239.008 577.672 238.139C573.487 236.943 570.973 232.465 566.896 230.94C564.86 230.178 562.563 230.344 560.573 231.206C545.126 260.579 601.529 292.746 622.941 251.905Z" fill="white"/>
<path d="M563.928 247.999C563.928 247.999 570.423 264.489 591.854 267.585" stroke="#032021" stroke-miterlimit="10" stroke-linecap="round" stroke-linejoin="round"/>
<path d="M591.854 235.606C605.632 235.606 616.801 225.003 616.801 211.924C616.801 198.845 605.632 188.242 591.854 188.242C578.076 188.242 566.907 198.845 566.907 211.924C566.907 225.003 578.076 235.606 591.854 235.606Z" fill="#085F66"/>
<path d="M589.679 198.848C589.679 200.447 587.757 201.744 585.387 201.744C583.017 201.744 581.095 200.448 581.095 198.848C581.095 197.249 583.016 195.952 585.387 195.952C587.758 195.952 589.679 197.249 589.679 198.848Z" fill="#032021"/>
<path d="M598.263 199.076C600.633 199.076 602.555 197.779 602.555 196.18C602.555 194.581 600.633 193.284 598.263 193.284C595.893 193.284 593.971 194.581 593.971 196.18C593.971 197.779 595.893 199.076 598.263 199.076Z" fill="#032021"/>
<path d="M605.237 207.791C607.607 207.791 609.529 206.494 609.529 204.895C609.529 203.296 607.607 201.999 605.237 201.999C602.867 201.999 600.945 203.296 600.945 204.895C600.945 206.494 602.867 207.791 605.237 207.791Z" fill="#032021"/>
<path d="M593.971 209.591C596.341 209.591 598.263 208.294 598.263 206.695C598.263 205.096 596.341 203.799 593.971 203.799C591.601 203.799 589.679 205.096 589.679 206.695C589.679 208.294 591.601 209.591 593.971 209.591Z" fill="#032021"/>
<path d="M605.237 213.61C605.237 215.209 603.315 216.506 600.945 216.506C598.575 216.506 596.653 215.21 596.653 213.61C596.653 212.011 598.575 210.714 600.945 210.714C603.315 210.714 605.237 212.011 605.237 213.61Z" fill="#032021"/>
<path d="M587.002 221.052C589.372 221.052 591.294 219.755 591.294 218.156C591.294 216.557 589.372 215.26 587.002 215.26C584.632 215.26 582.71 216.557 582.71 218.156C582.71 219.755 584.632 221.052 587.002 221.052Z" fill="#032021"/>
<path d="M579.486 209.591C581.856 209.591 583.778 208.294 583.778 206.695C583.778 205.096 581.856 203.799 579.486 203.799C577.115 203.799 575.194 205.096 575.194 206.695C575.194 208.294 577.115 209.591 579.486 209.591Z" fill="#032021"/>
<path d="M355.981 371.113C366.976 369.526 378.668 375.243 384.167 384.895C387.055 389.964 388.278 395.796 389.171 401.561C390.6 410.791 391.286 420.137 391.219 429.477C391.184 434.369 390.926 439.348 389.261 443.947C387.596 448.547 384.326 452.776 379.768 454.551C372.905 457.224 365.347 453.879 358.04 452.951C348.782 451.775 339.513 454.567 330.193 455.041C320.873 455.514 310.15 452.67 306.116 444.254C303.56 438.922 304.335 432.585 306.066 426.932C307.367 422.683 309.382 418.341 313.144 415.975C317.865 413.006 324.71 413.534 328.163 409.155C331.206 405.296 329.796 400.335 330.511 395.882C331.118 392.101 333.46 389.038 335.361 385.747C339.76 378.134 347.136 372.39 355.981 371.113Z" fill="#FFB47E"/>
<path opacity="0.56" d="M351.639 406.209C360.899 415.605 376.092 411.201 384.834 403.133C365.652 420.55 364.813 438.127 391.53 447.28C377.067 446.636 350.112 431.604 346.385 453.843C349.053 439.081 332.848 440.024 320.102 442.832C318.794 443.12 318.195 441.275 319.426 440.748C328.781 436.746 339.135 432.571 332.338 428.774C304.471 413.209 326.875 417.658 320.835 416.542C355.185 427.688 330.618 397.673 339.337 384.079C350.281 373.406 343.601 402.67 351.639 406.209Z" fill="white"/>
<path d="M401.908 440.643C394.639 414.866 406.895 370.05 369.139 366.93C353.547 364.68 333.779 370.465 329.472 387.28C327.623 394.857 329.577 403.939 324.303 409.685C312.312 418.611 298.556 415.363 294.561 435.156C291.481 450.748 304.419 469.977 321.202 468.318C327.853 467.51 333.544 463.117 340.058 461.546C349.172 459.348 358.544 462.864 367.588 465.334C387.313 471.956 404.315 462.696 401.908 440.643ZM362.064 451.742C355.587 449.973 348.874 447.454 342.347 449.029C337.682 450.154 333.606 453.3 328.843 453.879C316.823 455.067 307.557 441.295 309.763 430.129C312.624 415.953 322.475 418.279 331.064 411.887C334.841 407.772 333.442 401.267 334.766 395.841C337.851 383.798 352.008 379.655 363.175 381.267C390.215 383.502 381.438 415.598 386.644 434.06C388.367 449.853 376.19 456.484 362.064 451.742Z" fill="#FF5920"/>
<path d="M366.71 401.889C367.684 402.649 368.694 403.427 369.888 403.745C371.082 404.063 372.52 403.802 373.241 402.799C373.594 402.308 373.741 401.693 373.752 401.089C373.789 399.189 372.552 397.456 371.011 396.345C369.248 395.074 366.459 394.609 365.12 396.321C363.699 398.138 365.14 400.957 367.196 402.002" fill="#FFB47E"/>
<path d="M326.491 430.582C327.085 431.046 327.701 431.52 328.43 431.714C329.158 431.908 330.035 431.749 330.475 431.137C330.69 430.838 330.78 430.462 330.787 430.094C330.809 428.935 330.055 427.878 329.115 427.2C328.039 426.424 326.338 426.141 325.522 427.185C324.655 428.293 325.534 430.013 326.788 430.65" fill="#FFB47E"/>
<path d="M357.872 444.608C358.466 445.072 359.082 445.546 359.811 445.74C360.539 445.934 361.416 445.775 361.856 445.163C362.071 444.864 362.161 444.489 362.168 444.12C362.19 442.961 361.436 441.904 360.496 441.226C359.421 440.451 357.719 440.167 356.903 441.211C356.036 442.319 356.915 444.038 358.169 444.676" fill="#FFB47E"/>
<path d="M366.78 452.633C367.374 453.097 367.99 453.571 368.719 453.765C369.447 453.959 370.324 453.8 370.764 453.188C370.979 452.889 371.069 452.514 371.076 452.145C371.099 450.986 370.344 449.929 369.404 449.251C368.329 448.475 366.627 448.192 365.811 449.236C364.944 450.344 365.823 452.064 367.077 452.701" fill="#FFB47E"/>
<path d="M358.374 400.489C358.768 400.796 359.176 401.111 359.658 401.239C360.141 401.367 360.722 401.262 361.013 400.857C361.156 400.659 361.215 400.41 361.22 400.166C361.235 399.398 360.735 398.698 360.112 398.249C359.4 397.735 358.272 397.547 357.731 398.239C357.157 398.973 357.739 400.112 358.57 400.535" fill="#FFB47E"/>
<path d="M368.165 443.233C368.559 443.54 368.967 443.854 369.449 443.983C369.932 444.111 370.513 444.006 370.804 443.601C370.946 443.403 371.006 443.154 371.011 442.91C371.026 442.142 370.526 441.442 369.903 440.993C369.191 440.479 368.063 440.291 367.522 440.983C366.948 441.717 367.53 442.856 368.361 443.279" fill="#FFB47E"/>
<path d="M324.187 438.248C324.581 438.555 324.989 438.87 325.471 438.998C325.954 439.126 326.535 439.021 326.826 438.616C326.968 438.418 327.028 438.169 327.033 437.925C327.048 437.157 326.548 436.457 325.925 436.008C325.213 435.494 324.085 435.306 323.544 435.998C322.97 436.732 323.552 437.871 324.383 438.294" fill="#FFB47E"/>
<path d="M365.423 408.497C365.817 408.804 366.225 409.118 366.707 409.247C367.19 409.375 367.771 409.27 368.062 408.865C368.204 408.667 368.264 408.418 368.269 408.174C368.284 407.406 367.784 406.706 367.161 406.257C366.448 405.743 365.321 405.555 364.78 406.247C364.206 406.981 364.788 408.12 365.619 408.543" fill="#FFB47E"/>
<path d="M380.419 420.496C380.813 420.803 381.221 421.117 381.703 421.246C382.186 421.374 382.767 421.269 383.058 420.864C383.2 420.666 383.26 420.417 383.265 420.173C383.28 419.405 382.78 418.705 382.157 418.256C381.445 417.742 380.317 417.554 379.776 418.246C379.202 418.98 379.784 420.119 380.615 420.542" fill="#FFB47E"/>
<path d="M320.072 430.098C320.466 430.405 320.874 430.72 321.356 430.848C321.839 430.976 322.42 430.871 322.711 430.466C322.853 430.268 322.913 430.019 322.918 429.775C322.933 429.007 322.433 428.307 321.81 427.858C321.098 427.344 319.97 427.156 319.429 427.848C318.855 428.582 319.437 429.721 320.268 430.144" fill="#FFB47E"/>
<path d="M467.053 412.702C475.025 416.621 480.157 425.674 479.427 434.527C479.043 439.176 477.216 443.577 475.201 447.784C471.975 454.52 468.206 460.996 463.944 467.129C461.712 470.341 459.293 473.51 456.117 475.793C452.941 478.076 448.873 479.39 445.063 478.502C439.327 477.166 435.851 471.545 431.449 467.632C425.871 462.675 418.494 460.331 412.13 456.434C405.766 452.537 399.976 445.817 401.115 438.442C401.837 433.77 405.21 429.938 408.906 426.99C411.684 424.774 414.974 422.819 418.525 422.957C422.981 423.13 427.259 426.57 431.515 425.24C435.266 424.068 436.577 420.158 439.059 417.542C441.167 415.321 444.096 414.358 446.837 413.045C453.178 410.008 460.64 409.549 467.053 412.702Z" fill="#CCC200"/>
<path opacity="0.56" d="M448.336 433.898C450.202 444.28 462.216 448.237 471.629 446.861C451.105 449.69 442.613 460.909 456.108 479.016C446.856 472.059 435.859 449.965 423.356 462.956C431.784 454.421 420.666 447.723 410.987 443.82C409.994 443.419 410.432 441.931 411.482 442.139C419.462 443.724 428.18 445.645 425.41 440.07C414.052 417.214 426.826 430.268 423.345 426.803C440.976 449.672 438.322 418.771 450.216 413.739C462.256 411.641 444.631 427.932 448.336 433.898Z" fill="white"/>
<path d="M465.953 479.324C472.799 459.032 501.128 434.997 477.624 415.884C468.352 407.357 452.695 402.246 442.259 411.396C437.617 415.561 434.804 422.436 428.729 423.845C416.785 424.318 409.176 415.962 397.6 427.219C388.526 436.116 388.377 454.648 400.201 461.134C404.955 463.605 410.694 463.277 415.702 465.182C422.709 467.848 427.305 474.401 432.157 480.116C442.18 493.393 457.581 494.963 465.953 479.324ZM434.65 468.652C431.175 464.559 427.883 459.866 422.865 457.956C419.279 456.592 415.168 456.826 411.764 455.057C403.296 450.412 403.402 437.14 409.901 430.768C418.192 422.706 423.641 428.691 432.195 428.352C436.546 427.343 438.561 422.419 441.885 419.436C449.36 412.883 460.573 416.543 467.213 422.651C484.046 436.339 463.757 453.553 458.854 468.086C452.859 479.285 441.829 478.16 434.65 468.652Z" fill="#085F66"/>
<path d="M460.232 437.855C460.532 438.796 460.847 439.766 461.491 440.515C462.135 441.264 463.202 441.742 464.131 441.405C464.585 441.241 464.96 440.901 465.241 440.508C466.123 439.271 466.09 437.569 465.575 436.139C464.986 434.504 463.356 432.937 461.699 433.462C459.941 434.019 459.618 436.53 460.503 438.148" fill="#844210"/>
<path d="M420.734 438.622C420.917 439.196 421.109 439.788 421.502 440.244C421.895 440.701 422.546 440.992 423.112 440.787C423.389 440.687 423.618 440.48 423.789 440.24C424.327 439.486 424.307 438.447 423.993 437.575C423.634 436.578 422.639 435.622 421.628 435.942C420.556 436.282 420.359 437.813 420.899 438.8" fill="#844210"/>
<path d="M435.105 462.051C435.288 462.625 435.48 463.217 435.873 463.673C436.266 464.13 436.917 464.421 437.483 464.216C437.76 464.116 437.989 463.909 438.16 463.669C438.698 462.915 438.678 461.876 438.364 461.004C438.005 460.007 437.01 459.051 436 459.371C434.927 459.711 434.731 461.242 435.271 462.229" fill="#844210"/>
<path d="M437.359 471.369C437.542 471.943 437.734 472.535 438.127 472.991C438.52 473.448 439.171 473.739 439.737 473.534C440.014 473.434 440.243 473.227 440.414 472.987C440.952 472.233 440.932 471.194 440.618 470.322C440.259 469.325 439.264 468.369 438.254 468.689C437.182 469.029 436.985 470.56 437.525 471.547" fill="#844210"/>
<path d="M455.364 433.166C455.485 433.546 455.612 433.938 455.873 434.241C456.133 434.544 456.564 434.737 456.94 434.601C457.124 434.535 457.275 434.397 457.389 434.238C457.745 433.738 457.732 433.05 457.524 432.473C457.286 431.812 456.627 431.179 455.958 431.391C455.247 431.616 455.117 432.631 455.475 433.285" fill="#844210"/>
<path d="M442.519 465.792C442.64 466.173 442.767 466.564 443.028 466.867C443.288 467.17 443.719 467.363 444.095 467.227C444.279 467.161 444.43 467.023 444.543 466.864C444.9 466.364 444.886 465.676 444.678 465.099C444.44 464.438 443.781 463.805 443.112 464.017C442.401 464.242 442.271 465.257 442.629 465.911" fill="#844210"/>
<path d="M415.751 442.64C415.872 443.02 415.999 443.412 416.26 443.715C416.52 444.018 416.951 444.211 417.327 444.075C417.511 444.009 417.662 443.871 417.776 443.712C418.132 443.212 418.119 442.524 417.911 441.947C417.673 441.286 417.014 440.653 416.345 440.865C415.634 441.09 415.504 442.105 415.862 442.759" fill="#844210"/>
<path d="M456.398 441.634C456.519 442.015 456.646 442.406 456.907 442.709C457.167 443.012 457.598 443.205 457.974 443.069C458.158 443.003 458.309 442.865 458.423 442.706C458.779 442.206 458.766 441.518 458.558 440.941C458.32 440.28 457.661 439.647 456.991 439.859C456.28 440.084 456.15 441.099 456.508 441.753" fill="#844210"/>
<path d="M460.873 456.324C460.994 456.705 461.121 457.096 461.382 457.399C461.642 457.702 462.073 457.895 462.449 457.759C462.633 457.693 462.784 457.555 462.897 457.396C463.254 456.896 463.24 456.208 463.032 455.631C462.794 454.97 462.135 454.337 461.465 454.549C460.754 454.774 460.624 455.789 460.982 456.443" fill="#844210"/>
<path d="M416.717 435.404C416.838 435.785 416.965 436.176 417.226 436.479C417.486 436.782 417.917 436.975 418.293 436.839C418.477 436.773 418.628 436.635 418.742 436.476C419.099 435.976 419.085 435.288 418.877 434.711C418.639 434.05 417.98 433.417 417.311 433.629C416.6 433.854 416.47 434.869 416.828 435.523" fill="#844210"/>
<path d="M476.575 337.811C480.096 341.491 484.95 343.532 489.658 345.476C534.359 363.929 579.06 382.382 623.76 400.835C628.095 402.625 632.555 404.442 637.244 404.547C641.933 404.652 646.972 402.664 649.163 398.517C651.465 394.159 650.09 388.796 648.126 384.275C637.299 359.347 611.802 344.605 587.754 331.943C561.275 318.001 535.076 306.294 505.58 300.526C495.158 298.488 488.059 297.969 479.714 305.861C471.101 314.003 467.582 328.413 476.575 337.811Z" fill="#CCC200"/>
<path d="M491.402 340.209C516.168 345.953 539.975 355.808 561.555 369.248" stroke="#085F66" stroke-miterlimit="10"/>
<path d="M489.32 321.341C498.398 322.815 507.241 325.723 515.421 329.926" stroke="#085F66" stroke-miterlimit="10"/>
<path d="M489.678 328.49C494.133 329.06 498.553 329.896 502.908 330.993" stroke="#085F66" stroke-miterlimit="10"/>
<path d="M501.056 310.592C512.08 312.678 522.991 315.358 533.726 318.616" stroke="#085F66" stroke-miterlimit="10"/>
<path d="M551.213 349.49C570.403 355.657 589.26 362.858 607.675 371.052" stroke="#085F66" stroke-miterlimit="10"/>
<path d="M572.656 373.831C577.181 375.039 581.706 376.248 586.231 377.456" stroke="#085F66" stroke-miterlimit="10"/>
<path d="M582.63 339.644C592.699 342.428 602.452 346.355 611.641 351.324" stroke="#085F66" stroke-miterlimit="10"/>
<path d="M595.881 357.086C598.886 357.705 601.792 358.802 604.457 360.321" stroke="#085F66" stroke-miterlimit="10"/>
<path d="M617.676 386.823C624.984 389.234 632.069 392.322 638.81 396.035" stroke="#085F66" stroke-miterlimit="10"/>
<path d="M643.982 462.323C657.283 462.323 668.065 452.608 668.065 440.624C668.065 428.64 657.283 418.925 643.982 418.925C630.681 418.925 619.899 428.64 619.899 440.624C619.899 452.608 630.681 462.323 643.982 462.323Z" fill="#085F66"/>
<path d="M643.901 458.389C655.996 458.389 665.801 449.555 665.801 438.657C665.801 427.759 655.996 418.925 643.901 418.925C631.806 418.925 622.001 427.759 622.001 438.657C622.001 449.555 631.806 458.389 643.901 458.389Z" fill="#CCC200"/>
<path opacity="0.52" d="M648.394 438.649C648.394 441.361 646.195 443.56 643.483 443.56C640.771 443.56 638.572 441.361 638.572 438.649C638.572 435.937 640.771 433.738 643.483 433.738C646.195 433.737 648.394 435.936 648.394 438.649Z" fill="white"/>
<path d="M646.301 445.557C647.496 447.314 648.858 448.957 650.364 450.456" stroke="#085F66" stroke-miterlimit="10"/>
<path d="M651.729 440.871C653.875 441.467 656.021 442.064 658.167 442.66" stroke="#085F66" stroke-miterlimit="10"/>
<path d="M653.518 432.636C655.664 431.801 657.81 430.967 659.956 430.132" stroke="#085F66" stroke-miterlimit="10"/>
<path d="M639.966 430.826C639.092 429.44 638.56 427.839 638.43 426.206" stroke="#085F66" stroke-miterlimit="10"/>
<path d="M634.198 434.859C631.578 434.595 628.957 434.332 626.337 434.068" stroke="#085F66" stroke-miterlimit="10"/>
<path d="M634.205 443.01C632.335 444.323 630.646 445.892 629.198 447.66" stroke="#085F66" stroke-miterlimit="10"/>
<path d="M640.662 449.471C639.843 450.146 639.411 451.26 639.56 452.31" stroke="#085F66" stroke-miterlimit="10"/>
<path d="M581.019 488.959C594.319 488.959 605.102 479.244 605.102 467.26C605.102 455.276 594.319 445.561 581.019 445.561C567.718 445.561 556.936 455.276 556.936 467.26C556.936 479.244 567.718 488.959 581.019 488.959Z" fill="#085F66"/>
<path d="M580.939 485.025C593.034 485.025 602.839 476.191 602.839 465.293C602.839 454.395 593.034 445.561 580.939 445.561C568.844 445.561 559.039 454.395 559.039 465.293C559.039 476.191 568.844 485.025 580.939 485.025Z" fill="#CCC200"/>
<path opacity="0.52" d="M585.431 465.285C585.431 467.997 583.232 470.196 580.52 470.196C577.808 470.196 575.609 467.997 575.609 465.285C575.609 462.573 577.808 460.374 580.52 460.374C583.233 460.373 585.431 462.572 585.431 465.285Z" fill="white"/>
<path d="M583.339 472.193C584.534 473.95 585.896 475.593 587.402 477.092" stroke="#085F66" stroke-miterlimit="10"/>
<path d="M588.766 467.507C590.912 468.103 593.058 468.7 595.204 469.296" stroke="#085F66" stroke-miterlimit="10"/>
<path d="M590.556 459.272C592.702 458.437 594.848 457.603 596.994 456.768" stroke="#085F66" stroke-miterlimit="10"/>
<path d="M577.004 457.461C576.13 456.075 575.598 454.475 575.468 452.841" stroke="#085F66" stroke-miterlimit="10"/>
<path d="M571.235 461.495C568.615 461.232 565.994 460.968 563.374 460.704" stroke="#085F66" stroke-miterlimit="10"/>
<path d="M571.243 469.646C569.373 470.959 567.683 472.528 566.236 474.296" stroke="#085F66" stroke-miterlimit="10"/>
<path d="M577.7 476.107C576.881 476.782 576.449 477.896 576.598 478.946" stroke="#085F66" stroke-miterlimit="10"/>
<path d="M525.995 433.004C539.296 433.004 550.078 423.289 550.078 411.305C550.078 399.321 539.296 389.606 525.995 389.606C512.694 389.606 501.912 399.321 501.912 411.305C501.912 423.289 512.694 433.004 525.995 433.004Z" fill="#085F66"/>
<path d="M525.914 429.07C538.009 429.07 547.814 420.236 547.814 409.338C547.814 398.44 538.009 389.606 525.914 389.606C513.819 389.606 504.014 398.44 504.014 409.338C504.014 420.236 513.819 429.07 525.914 429.07Z" fill="#CCC200"/>
<path opacity="0.52" d="M530.406 409.329C530.406 412.041 528.207 414.24 525.495 414.24C522.783 414.24 520.584 412.041 520.584 409.329C520.584 406.617 522.783 404.418 525.495 404.418C528.208 404.418 530.406 406.616 530.406 409.329Z" fill="white"/>
<path d="M528.314 416.237C529.509 417.994 530.871 419.637 532.377 421.136" stroke="#085F66" stroke-miterlimit="10"/>
<path d="M533.741 411.551C535.887 412.147 538.033 412.744 540.179 413.34" stroke="#085F66" stroke-miterlimit="10"/>
<path d="M535.531 403.317C537.677 402.482 539.823 401.648 541.969 400.813" stroke="#085F66" stroke-miterlimit="10"/>
<path d="M521.979 401.506C521.105 400.12 520.573 398.519 520.443 396.886" stroke="#085F66" stroke-miterlimit="10"/>
<path d="M516.21 405.54C513.59 405.277 510.969 405.013 508.349 404.749" stroke="#085F66" stroke-miterlimit="10"/>
<path d="M516.218 413.69C514.348 415.003 512.658 416.572 511.211 418.34" stroke="#085F66" stroke-miterlimit="10"/>
<path d="M522.675 420.151C521.856 420.826 521.424 421.94 521.573 422.99" stroke="#085F66" stroke-miterlimit="10"/>
<path d="M666.628 298.181C666.708 299.411 666.987 300.628 667.461 301.765C665 296.236 650.012 288.772 658.914 300.137C656.651 299.277 654.75 297.683 652.604 296.563C652.074 296.279 651.444 296.013 650.772 295.805C647.375 294.751 645.255 299.432 648.334 301.211C649.673 301.984 651.125 302.62 652.295 303.259C650.092 302.204 647.072 301.305 644.582 301.803C642.431 302.234 642.173 305.178 644.195 306.028C647.204 307.293 650.378 308.168 653.611 308.619C651.292 308.276 649.058 311.21 652.059 312.125C656.009 313.535 660.355 312.214 664.337 310.894C660.998 317.517 681.884 313.047 669.615 297.11C668.619 295.817 666.522 296.552 666.628 298.181Z" fill="#CCC200"/>
<path d="M660.217 284.391C659.041 284.023 657.805 283.844 656.573 283.877C662.618 283.572 674.979 272.278 661.17 276.49C662.788 274.689 664.959 273.489 666.777 271.89C667.233 271.498 667.708 271.006 668.144 270.454C670.35 267.665 666.747 264.001 663.978 266.233C662.775 267.203 661.658 268.33 660.641 269.191C662.419 267.516 664.345 265.022 664.777 262.52C665.15 260.359 662.496 259.057 660.975 260.637C658.711 262.989 656.752 265.634 655.167 268.488C656.322 266.448 654.39 263.308 652.455 265.778C649.717 268.955 649.385 273.486 649.182 277.675C644.206 272.175 640.854 293.27 660.14 287.563C661.706 287.1 661.775 284.878 660.217 284.391Z" fill="#CCC200"/>
<path fill-rule="evenodd" clip-rule="evenodd" d="M678.248 0C673.657 19.589 656.088 34.181 635.099 34.181C614.11 34.181 596.541 19.589 591.95 0H566.718C571.628 33.364 600.371 58.975 635.1 58.975C669.829 58.975 698.57 33.364 703.48 0H678.248Z" fill="#085F66"/>
<path fill-rule="evenodd" clip-rule="evenodd" d="M898.899 500C904.707 475.217 926.935 456.757 953.489 456.757C980.043 456.757 1002.27 475.217 1008.08 500H1040C1033.79 457.79 997.424 425.388 953.488 425.388C909.552 425.388 873.188 457.789 866.976 500H898.899Z" fill="#085F66"/>
<path d="M589.4 134.879C594.451 134.879 598.547 130.784 598.547 125.732C598.547 120.68 594.451 116.585 589.4 116.585C584.348 116.585 580.253 120.68 580.253 125.732C580.253 130.784 584.348 134.879 589.4 134.879Z" stroke="#085F66" stroke-width="2" stroke-miterlimit="10"/>
<path d="M224.919 471.884C225.841 466.917 222.562 462.143 217.596 461.221C212.629 460.298 207.854 463.577 206.932 468.544C206.01 473.511 209.288 478.285 214.255 479.207C219.222 480.13 223.996 476.851 224.919 471.884Z" stroke="#085F66" stroke-width="2" stroke-miterlimit="10"/>
<path d="M964.829 47.5799C968.401 44.0078 968.401 38.2163 964.829 34.6442C961.257 31.0721 955.465 31.0721 951.893 34.6442C948.321 38.2163 948.321 44.0078 951.893 47.5799C955.465 51.152 961.257 51.152 964.829 47.5799Z" stroke="#085F66" stroke-width="2" stroke-miterlimit="10"/>
<path d="M1013.99 368.305C1015.91 360.211 1010.91 352.09 1002.81 350.166C994.72 348.243 986.599 353.245 984.676 361.339C982.752 369.433 987.754 377.554 995.849 379.478C1003.94 381.401 1012.06 376.399 1013.99 368.305Z" stroke="#085F66" stroke-width="2" stroke-miterlimit="10"/>
<path d="M618.183 307.744C621.755 304.172 621.755 298.38 618.183 294.808C614.611 291.236 608.819 291.236 605.247 294.808C601.675 298.38 601.675 304.172 605.247 307.744C608.819 311.316 614.611 311.316 618.183 307.744Z" stroke="#085F66" stroke-width="2" stroke-miterlimit="10"/>
<path d="M955.984 334.187C1017.89 272.278 1017.89 171.903 955.984 109.993C894.075 48.0833 793.7 48.0833 731.79 109.993C669.88 171.903 669.88 272.278 731.79 334.187C793.7 396.097 894.075 396.097 955.984 334.187Z" fill="#085F66"/>
<path opacity="0.18" d="M988.374 287.431C997.4 267.506 1002.43 245.384 1002.43 222.087C1002.43 134.533 931.449 63.556 843.895 63.556C756.341 63.556 685.364 134.533 685.364 222.087C685.364 224.533 685.428 226.965 685.538 229.384L690.003 231.396C690.003 231.396 734.227 131.189 868.5 144.471C1002.73 157.747 988.384 287.34 988.374 287.431Z" fill="#032021"/>
<path d="M844.074 380.349C931.628 380.349 1002.6 309.372 1002.6 221.818C1002.6 134.264 931.628 63.287 844.074 63.287C756.52 63.287 685.543 134.264 685.543 221.818C685.543 309.372 756.52 380.349 844.074 380.349Z" stroke="#8CC2F2" stroke-width="10" stroke-miterlimit="10"/>
<path d="M872.739 266.587C872.829 266.877 872.899 267.069 872.943 267.139C857.153 269.218 831.426 263.401 815.535 262.328C807.257 261.769 798.714 260.384 790.828 262.966C773.094 273.742 749.676 262.715 752.915 240.626C735.951 243.106 725.297 220.72 737.91 209.117C730.887 201.789 736.278 188.632 746.421 188.335C740.659 171.139 753.08 171.168 765.682 173.629C755.555 160.256 764.976 143.679 781.614 144.498C794.598 145.427 806.788 152.692 818.118 158.744C833.059 171.152 845.258 188.091 852.978 205.847C857.389 217.918 858.265 230.895 863.523 242.432C867.101 250.285 870.18 258.347 872.739 266.587Z" fill="#CCC200"/>
<path d="M846.194 234.293C829.519 231.598 816.431 219.108 803.883 207.801C791.335 196.493 776.556 185.2 759.676 185.821" stroke="#085F66" stroke-miterlimit="10" stroke-linecap="round" stroke-linejoin="round"/>
<path d="M835.728 231.395C832.986 228.109 832.259 223.597 832.16 219.319C831.986 211.787 833.45 204.222 836.422 197.299" stroke="#085F66" stroke-miterlimit="10" stroke-linecap="round" stroke-linejoin="round"/>
<path d="M812.019 215.593C807.656 209.105 805.768 201.199 805.453 193.387C805.138 185.575 806.312 177.785 807.634 170.079" stroke="#085F66" stroke-miterlimit="10" stroke-linecap="round" stroke-linejoin="round"/>
<path d="M789.161 195.952C787.169 194.177 786.45 191.402 785.975 188.777C784.044 178.122 784.492 167.043 787.278 156.579" stroke="#085F66" stroke-miterlimit="10" stroke-linecap="round" stroke-linejoin="round"/>
<path d="M803.883 207.801C786.565 203.358 764.85 208.052 752.576 221.052" stroke="#085F66" stroke-miterlimit="10" stroke-linecap="round" stroke-linejoin="round"/>
<path d="M812.126 215.23C808.503 214.581 804.791 215.553 801.323 216.786C792.171 220.041 783.7 225.199 776.607 231.835" stroke="#085F66" stroke-miterlimit="10" stroke-linecap="round" stroke-linejoin="round"/>
<path d="M826.084 226.292C821.973 225.745 817.679 226.711 814.197 228.964" stroke="#085F66" stroke-miterlimit="10" stroke-linecap="round" stroke-linejoin="round"/>
<path d="M839.759 317.646C839.486 317.701 839.303 317.746 839.231 317.78C842.169 303.466 854.752 280.962 860.389 266.838C863.326 259.48 867.041 251.958 867.201 244.673C863.352 227.849 879.66 207.872 897.404 212.73C900.352 197.331 922.482 189.784 928.555 202.099C936.851 196.465 946.389 202.456 943.623 211.559C959.901 207.929 956.18 219.04 950.346 230.099C964.686 222.224 975.921 232.125 970.276 246.94C965.625 258.476 955.844 268.739 947.348 278.34C932.393 290.608 914.417 300.021 897.082 305.353C885.546 308.229 874.295 307.862 862.959 311.542C855.244 314.047 847.5 316.087 839.759 317.646Z" fill="#CCC200"/>
<path d="M839.774 316.433C872.095 293.663 900.95 264.739 923.656 232.349" stroke="#085F66" stroke-miterlimit="10" stroke-linecap="round" stroke-linejoin="round"/>
<path d="M908.389 252.49C909.186 243.942 908.543 235.608 906.495 227.939C906.303 227.221 906.087 226.487 905.581 225.994" stroke="#085F66" stroke-miterlimit="10" stroke-linecap="round" stroke-linejoin="round"/>
<path d="M888.031 275.687C890.467 263.183 887.784 250.983 880.754 242.599" stroke="#085F66" stroke-miterlimit="10" stroke-linecap="round" stroke-linejoin="round"/>
<path d="M866.922 295.381C867.077 291.102 865.717 287.144 863.129 284.341" stroke="#085F66" stroke-miterlimit="10" stroke-linecap="round" stroke-linejoin="round"/>
<path d="M866.993 295.962C873.347 295.04 879.338 297.201 882.747 301.644" stroke="#085F66" stroke-miterlimit="10" stroke-linecap="round" stroke-linejoin="round"/>
<path d="M888.04 275.632C898.219 274.066 907.812 277.718 912.932 285.107" stroke="#085F66" stroke-miterlimit="10" stroke-linecap="round" stroke-linejoin="round"/>
<path d="M909.416 252.198C914.11 252.286 918.802 252.651 922.866 254.27C926.93 255.889 930.345 258.899 931.514 263.206" stroke="#085F66" stroke-miterlimit="10" stroke-linecap="round" stroke-linejoin="round"/>
<path d="M965.431 256.142C965.431 256.142 945.138 299.313 879.182 308.245L839.759 317.646" stroke="#032021" stroke-miterlimit="10" stroke-linecap="round" stroke-linejoin="round"/>
<path d="M893.399 237.969C893.701 238.003 893.904 238.016 893.987 238.003C889.567 253.304 873.93 274.546 866.581 288.675C862.752 296.036 858.618 306.097 858.326 311.555C857.37 329.413 854.971 342.57 846.194 344.716C840.924 346.005 830.107 342.657 821.61 337.357C817.086 353.893 792.307 354.688 786.729 338.483C777.201 341.982 767.306 331.772 771.097 322.359C753.033 320.75 758.035 309.381 765.339 298.82C749.029 302.741 737.615 287.469 745.03 272.552C751.083 261.028 762.623 252.769 772.707 244.812C790.061 236.093 810.469 231.701 829.83 231.741C842.657 232.535 854.898 236.931 867.576 236.736C876.203 236.605 884.823 237.013 893.399 237.969Z" fill="#CCC200"/>
<path d="M893.279 239.348C856.09 253.917 822.16 276.737 794.642 305.685" stroke="#085F66" stroke-miterlimit="10" stroke-linecap="round" stroke-linejoin="round"/>
<path d="M813.005 288.089C811.41 297.565 811.403 307.306 812.986 316.784C813.134 317.671 813.308 318.586 813.818 319.327" stroke="#085F66" stroke-miterlimit="10" stroke-linecap="round" stroke-linejoin="round"/>
<path d="M837.182 268.805C833.463 282.217 835.353 297.092 842.309 309.147" stroke="#085F66" stroke-miterlimit="10" stroke-linecap="round" stroke-linejoin="round"/>
<path d="M861.88 253.785C861.348 258.615 862.495 263.614 865.08 267.728" stroke="#085F66" stroke-miterlimit="10" stroke-linecap="round" stroke-linejoin="round"/>
<path d="M861.851 253.096C854.842 251.903 848.49 247.319 845.15 241.042" stroke="#085F66" stroke-miterlimit="10" stroke-linecap="round" stroke-linejoin="round"/>
<path d="M837.168 268.865C825.932 267.055 815.779 259.496 810.822 249.252" stroke="#085F66" stroke-miterlimit="10" stroke-linecap="round" stroke-linejoin="round"/>
<path d="M811.86 288.06C806.748 286.3 801.66 284.226 797.365 280.941C793.071 277.656 789.601 273.014 788.691 267.685" stroke="#085F66" stroke-miterlimit="10" stroke-linecap="round" stroke-linejoin="round"/>
<path d="M751.097 263.761C751.097 263.761 776.899 221.653 849.6 234.767L893.4 237.969" stroke="#032021" stroke-miterlimit="10" stroke-linecap="round" stroke-linejoin="round"/>
<path d="M857.056 325.444C857.056 325.444 856.134 304.391 872.944 277.605C890.671 249.358 891.719 244.281 891.719 244.281" stroke="#032021" stroke-miterlimit="10" stroke-linecap="round" stroke-linejoin="round"/>
<path d="M797.786 287.383C797.43 284.317 797.768 281.053 799.436 278.455C801.104 275.857 804.307 274.112 807.319 274.786C809.888 275.361 811.785 277.447 813.786 279.157C815.98 281.032 818.48 282.549 821.155 283.63C824.554 285.004 829.075 285.384 831.31 282.477C832.885 280.428 832.661 277.587 832.822 275.008C833.221 268.625 837.437 261.919 843.786 261.149C849.805 260.419 855.028 264.995 859.353 269.244C857.581 271.451 855.896 273.607 854.124 275.813C854.399 272.454 851.863 269.094 848.558 268.437C845.253 267.779 841.625 269.913 840.593 273.122C839.96 275.091 840.233 277.22 840.084 279.283C839.731 284.161 836.808 288.779 832.552 291.187C828.295 293.595 822.832 293.721 818.469 291.512C815.333 289.924 812.831 287.268 809.68 285.709C808.132 284.943 806.114 284.514 804.792 285.626C802.817 287.286 804.106 290.649 802.934 292.947C801.295 292.262 799.569 291.782 797.811 291.524C797.791 290.495 797.904 288.405 797.786 287.383Z" fill="#FF5920"/>
<path d="M791.174 257.652C792.648 254.939 794.802 252.465 797.66 251.3C800.519 250.135 804.143 250.55 806.219 252.835C807.989 254.783 808.34 257.581 808.993 260.131C809.709 262.927 810.88 265.606 812.446 268.03C814.435 271.11 817.914 274.022 821.414 272.93C823.881 272.161 825.332 269.708 826.948 267.691C830.947 262.7 838.254 259.642 843.89 262.665C849.232 265.531 850.871 272.28 851.964 278.243C849.245 279.028 846.626 279.822 843.908 280.607C846.065 278.018 845.925 273.811 843.6 271.372C841.275 268.932 837.08 268.59 834.39 270.62C832.739 271.866 831.737 273.765 830.428 275.366C827.332 279.152 822.285 281.248 817.418 280.768C812.551 280.288 808.01 277.247 805.713 272.93C804.062 269.826 803.544 266.215 801.864 263.127C801.039 261.61 799.635 260.098 797.914 260.246C795.344 260.467 794.463 263.959 792.181 265.164C791.235 263.66 790.099 262.275 788.81 261.052C789.387 260.201 790.683 258.557 791.174 257.652Z" fill="#085F66"/>
<path d="M903.903 284.536C901.027 283.935 898.163 282.539 896.265 279.952C894.367 277.365 893.662 273.43 895.097 270.468C896.321 267.942 898.73 266.605 900.827 265.039C903.126 263.322 905.185 261.168 906.897 258.69C909.072 255.542 910.653 250.894 908.631 247.611C907.206 245.297 904.57 244.629 902.277 243.637C896.603 241.183 891.68 234.6 892.719 227.657C893.705 221.076 899.28 217.023 904.313 213.814C905.828 216.386 907.32 218.85 908.835 221.422C905.867 220.062 902.129 221.666 900.629 224.944C899.129 228.221 900.07 232.728 902.694 234.838C904.305 236.133 906.309 236.523 908.137 237.338C912.46 239.264 915.845 243.818 916.863 249.075C917.88 254.332 916.499 260.136 913.304 264.034C911.007 266.837 907.916 268.63 905.641 271.457C904.523 272.846 903.583 274.838 904.228 276.586C905.192 279.198 908.591 278.91 910.353 280.878C909.283 282.389 908.377 284.056 907.662 285.828C906.725 285.522 904.862 284.737 903.903 284.536Z" fill="#FF5920"/>
<path d="M875.156 282.04C873.101 279.621 871.448 276.561 871.175 273.174C870.902 269.787 872.27 266.097 874.908 264.635C877.158 263.389 879.789 263.91 882.278 264.033C885.007 264.169 887.755 263.787 890.38 262.907C893.715 261.789 897.305 259.047 897.274 255.008C897.252 252.161 895.427 249.848 894.042 247.501C890.614 241.693 889.842 233.011 894.124 228.029C898.183 223.307 904.746 223.727 910.449 224.474C910.417 227.592 910.419 230.607 910.386 233.725C908.631 230.625 904.781 229.432 901.934 231.108C899.087 232.783 897.629 237.099 898.733 240.584C899.41 242.722 900.857 244.384 901.949 246.275C904.532 250.746 905.05 256.739 903.284 261.72C901.518 266.701 897.52 270.523 892.979 271.57C889.715 272.323 886.301 271.719 883.043 272.508C881.442 272.895 879.689 273.894 879.352 275.757C878.849 278.539 881.772 280.581 882.24 283.371C880.618 283.89 879.053 284.647 877.592 285.617C876.976 284.737 875.84 282.846 875.156 282.04Z" fill="#085F66"/>
<path d="M818.354 228.806C829.927 228.806 839.309 222.333 839.309 214.348C839.309 206.363 829.927 199.89 818.354 199.89C806.781 199.89 797.399 206.363 797.399 214.348C797.399 222.333 806.781 228.806 818.354 228.806Z" fill="#FF5920"/>
<path opacity="0.52" d="M815.997 207.843C816.921 209.443 815.221 212.155 812.2 213.899C809.179 215.643 805.981 215.76 805.057 214.16C804.133 212.56 805.833 209.848 808.854 208.104C811.875 206.36 815.073 206.243 815.997 207.843Z" fill="white"/>
<path d="M874.87 197.102C886.443 197.102 895.825 190.629 895.825 182.644C895.825 174.659 886.443 168.186 874.87 168.186C863.297 168.186 853.915 174.659 853.915 182.644C853.915 190.629 863.297 197.102 874.87 197.102Z" fill="#FF5920"/>
<path opacity="0.52" d="M872.514 176.14C873.438 177.74 871.738 180.452 868.717 182.196C865.696 183.94 862.498 184.057 861.574 182.457C860.65 180.857 862.35 178.145 865.371 176.401C868.392 174.656 871.59 174.54 872.514 176.14Z" fill="white"/>
<path d="M881.074 238.975C891.318 233.59 896.609 223.495 892.894 216.428C889.179 209.361 877.863 207.997 867.62 213.382C857.376 218.767 852.084 228.861 855.8 235.929C859.515 242.996 870.831 244.36 881.074 238.975Z" fill="#FF5920"/>
<path opacity="0.52" d="M873.441 219.289C873.368 221.135 876.135 222.744 879.62 222.882C883.105 223.02 885.991 221.635 886.064 219.789C886.137 217.943 883.371 216.334 879.885 216.196C876.4 216.058 873.515 217.443 873.441 219.289Z" fill="white"/>
<mask id="mask1_505_12" style="mask-type:luminance" maskUnits="userSpaceOnUse" x="628" y="0" width="261" height="211">
<path d="M888.911 0H628.243V210.045H888.911V0Z" fill="white"/>
</mask>
<g mask="url(#mask1_505_12)">
<path d="M654.594 90.427L796.835 153.224L798.926 156.676C804.823 166.408 812.146 175.201 820.65 182.763L844.801 204.236C849.763 208.648 857.59 206.898 860.201 200.793L884.691 143.529C887.304 137.42 883.156 130.548 876.533 130.015L849.886 127.867C835.38 126.697 820.784 128.32 806.888 132.647C806.378 132.229 664.901 74.796 664.28 74.476C654.16 69.888 640.757 83.921 654.594 90.427ZM829.613 137.434C884.039 129.517 861.363 160.188 824.407 143.482C822.394 142.572 822.403 139.657 824.467 138.869C826.355 138.145 828.412 137.661 829.613 137.434ZM823.711 154.665C821.874 153.178 822.958 150.154 825.32 150.212C837.148 150.501 853.094 157.691 860.451 166.264C866.949 178.413 835.12 163.904 823.711 154.665ZM814.461 161.646C813.344 159.913 815.151 157.759 817.077 158.494C855.024 172.972 852.059 212.117 819.218 168.108C818.438 166.966 816.123 164.226 814.461 161.646Z" fill="#844210"/>
<g opacity="0.28">
<path d="M842.153 177.787L846.425 167.534C840.171 164.929 833.154 161.194 827.883 157.689L825.817 162.647C833.873 167.279 839.271 172.944 842.153 177.787Z" fill="white"/>
<path d="M858.714 138.039L862.528 128.885L849.886 127.866C846.742 127.613 843.595 127.516 840.451 127.524L836.671 136.595C847.875 135.529 854.975 136.374 858.714 138.039Z" fill="white"/>
<path d="M834.828 195.369L838.203 187.268C834.397 185.286 828.964 180.514 822.023 171.753L818.353 180.561C819.126 181.288 819.856 182.056 820.649 182.762L834.828 195.369Z" fill="white"/>
<path d="M850.322 158.18L854.8 147.432C849.524 148.934 841.708 149.139 832.553 146.48L830.752 150.804C837.267 151.923 844.32 154.619 850.322 158.18Z" fill="white"/>
</g>
<path d="M803.482 10.027C796.202 62.435 805.676 111.308 786.726 164.75C784.831 170.936 775.846 170.196 774.926 163.791C772.878 149.525 772.459 132.619 772.732 123.376C772.424 129.422 771.962 135.896 768.216 140.651C764.47 145.406 756.152 146.937 752.609 142.029C751.479 140.463 750.922 138.411 749.341 137.303C741.001 135.558 732.839 133.536 732.283 123.128C719.593 125.06 719.207 107.95 725.158 100.272C730.027 92.745 732.794 84.335 730.195 75.494C724.602 44.81 717.384 9.312 716.916 -21.875C717.671 -21.597 724.606 -18.176 725.361 -17.898L803.482 10.027Z" fill="#FF8A50"/>
<path d="M800.718 42.21C801.19 31.586 807.226 8.22998 808.733 -2.62602L725.36 -17.896C724.605 -18.174 717.671 -21.595 716.915 -21.874C717.239 -0.312023 720.79 23.31 724.799 45.978C733.24 40.205 743.018 36.428 753.113 34.77C764.681 32.871 776.751 33.713 787.863 37.5C792.361 39.033 796.777 41.425 800.718 42.21Z" fill="#8CC2F2"/>
<path d="M749.464 137.386C751.009 137.193 751.944 135.618 752.573 134.194C754.567 129.678 755.879 124.86 756.449 119.956" stroke="#032021" stroke-miterlimit="10" stroke-linecap="round" stroke-linejoin="round"/>
<path d="M732.247 123.543C736.659 118.708 739.847 112.764 741.434 106.414" stroke="#032021" stroke-miterlimit="10" stroke-linecap="round" stroke-linejoin="round"/>
</g>
<mask id="mask2_505_12" style="mask-type:luminance" maskUnits="userSpaceOnUse" x="888" y="8" width="152" height="188">
<path d="M1040 8.927H888.04V195.952H1040V8.927Z" fill="white"/>
</mask>
<g mask="url(#mask2_505_12)">
<path d="M939.127 166.498C935.232 161.65 940.154 162.257 943.934 161.934C946.049 166.05 941.175 175.404 939.787 166.865" fill="#FFB47E"/>
<path d="M928.072 157.548C916.706 157.626 924.429 171.536 928.939 157.807Z" fill="#FFB47E"/>
<path d="M931.446 170.876C927.6 176.574 938.913 178.931 934.71 171.622C934.795 169.917 931.978 168.409 931.985 170.647" fill="#FFB47E"/>
<path d="M945.563 180.941C949.052 181.533 951.287 178.098 947.624 176.405C945.061 175.82 941.457 182.184 945.536 180.449" fill="#FFB47E"/>
<path d="M911.222 149.007C906.352 150.924 911.837 156.184 913.099 151.203C914.141 149.742 911.972 147.453 911.54 149.545" fill="#FFB47E"/>
<path d="M913.001 135.398C912.107 139.552 914.77 141.127 915.889 136.302C916.896 133.952 913.035 131.963 913.326 134.841" fill="#FFB47E"/>
<path d="M912.643 168.661C915.801 179.238 918.976 161.049 912.111 168.019Z" fill="#FFB47E"/>
<path d="M916.345 184.837C915.163 187.016 918.714 187.569 920.034 186.492C923.062 183.95 917.766 180.539 916.704 184.348" fill="#FFB47E"/>
<path d="M1040.14 41.106C1041.53 47.866 1045.53 58.145 1046.69 64.948C1047.64 70.489 1048.51 76.059 1048.73 81.676C1049.23 94.508 1049.62 110.338 1039.67 118.455C1020.28 134.268 998.748 147.451 975.85 157.53C970.965 159.68 965.867 161.722 960.531 161.773C955.194 161.824 949.428 159.226 946.965 154.492C941.431 156.38 934.801 153.65 931.978 148.528C926.926 148.564 921.347 147.751 919.069 141.991C918.182 139.747 918.093 137.259 918.622 134.904C919.877 129.325 923.886 125.164 927.777 121.186C920.873 123.117 914.488 126.871 909.444 131.964C906.612 134.823 903.985 138.222 900.933 140.795C898.102 143.182 893.909 140.645 894.688 137.025C897.747 122.818 907.154 109.987 919.997 103.113C937.636 93.673 959.051 95.576 978.327 90.222C981.198 89.424 984.583 86.603 985.896 83.928C989.756 76.065 1000.22 70.87 1007.22 65.648C1018.19 57.467 1029.17 49.286 1040.14 41.106Z" fill="#FF8A50"/>
<path d="M1046.69 64.948C1045.53 58.145 1041.53 47.866 1040.14 41.106C1029.16 49.286 1018.19 57.467 1007.22 65.647C1000.22 70.869 989.753 76.064 985.893 83.927C985.144 85.453 983.715 87.013 982.098 88.232C982.94 88.844 984.01 89.494 985.376 90.472C992.996 95.929 998.649 103.599 1002.45 112.114C1006.33 120.796 1008.41 130.121 1010.09 139.508C1020.39 133.14 1030.28 126.109 1039.66 118.455C1049.62 110.338 1049.23 94.509 1048.73 81.676C1048.51 76.059 1047.64 70.489 1046.69 64.948Z" fill="#8CC2F2"/>
<path d="M932.701 148.911C931.99 143.727 932.915 138.331 935.314 133.681C937.101 130.217 940.294 126.889 944.186 127.102" stroke="#032021" stroke-miterlimit="10" stroke-linecap="round" stroke-linejoin="round"/>
<path d="M946.443 154.755C945.6 151.989 946.556 148.977 947.983 146.461C950.778 141.535 955.454 137.707 960.835 135.939" stroke="#032021" stroke-miterlimit="10" stroke-linecap="round" stroke-linejoin="round"/>
</g>
</g>
<defs>
<clipPath id="clip0_505_12">
<rect width="1040" height="500" fill="white"/>
</clipPath>
</defs>
</svg>
